Coordinates
version=1
nRows=9
nColumns=36
inDegrees=yes

Units are S.I. units (second, meters, Newtons, ...)
If the header above contains a line with 'inDegrees', this indicates whether rotational values are in degrees (yes) or radians (no).

endheader
time	pelvis_tilt	pelvis_list	pelvis_rotation	pelvis_tx	pelvis_ty	pelvis_tz	hip_flexion_r	hip_adduction_r	hip_rotation_r	knee_angle_r	knee_angle_r_beta	ankle_angle_r	subtalar_angle_r	mtp_angle_r	hip_flexion_l	hip_adduction_l	hip_rotation_l	knee_angle_l	knee_angle_l_beta	ankle_angle_l	subtalar_angle_l	mtp_angle_l	lumbar_extension	lumbar_bending	lumbar_rotation	arm_flex_r	arm_add_r	arm_rot_r	elbow_flex_r	pro_sup_r	arm_flex_l	arm_add_l	arm_rot_l	elbow_flex_l	pro_sup_l
      0.00000000	      2.25548927	     -1.12292092	     10.49758346	     -1.02866643	      1.36429444	     -0.13804998	      3.11753407	     -1.01388145	      0.86274495	     18.35667328	      0.32038439	     -3.26245647	    -26.78250596	     -6.25816943	     -4.02898879	      0.60398432	      7.70114384	      0.54471816	      0.00950713	      5.48735041	      0.68398650	     -6.25816943	    -11.45673349	     -0.36390259	      8.07992502	      4.91867296	     -8.64751806	     20.13851802	     51.47741535	     86.18486078	    -11.06108647	     -6.47269077	      1.47021966	     90.63565329	     91.83292013
      0.01666670	      0.98561519	     -0.58526765	     10.41582868	     -1.03481472	      1.35556949	     -0.13167369	      5.40580183	     -1.56796362	      1.05656218	     20.56252728	      0.35888380	      2.41822312	    -24.57992268	     -6.71091300	     -2.25084627	      1.52173790	     10.47287075	      0.67512196	      0.01178310	      5.28917298	     -1.80818123	     -6.71091300	    -10.93104688	     -1.43615865	      7.34833562	      4.18853235	     -7.81773903	     17.11815765	     53.06391280	     86.98550784	    -10.67543969	     -7.79445025	      0.85778517	     92.73870256	     91.13740563
      0.03333330	     -0.07539219	     -0.13259389	      9.90694605	     -1.04189612	      1.35289832	     -0.12535338	      7.08846906	     -2.12672602	      0.98075894	     20.99061327	      0.36635531	      4.43326529	    -23.99592147	     -6.74118904	     -0.75020049	      2.00905388	     10.23142106	      0.66522506	      0.01161037	      5.25150128	     -1.92791387	     -6.74118904	    -10.44947368	     -2.55516952	      7.07640716	      4.27985075	     -7.22144782	     15.46866764	     52.39850028	     87.43620903	     -9.20840907	     -8.88804332	      0.12232722	     92.48079304	     90.69563268
      0.05000000	     -0.22911622	      0.17036023	      9.36313712	     -1.03500465	      1.35110009	     -0.12955847	      7.66904518	     -2.70669355	      0.98558075	     22.13200662	      0.38627639	      4.82900668	    -24.25895329	     -6.81940543	     -0.83090257	      2.41879705	     10.33115307	      0.50552016	      0.00882299	      5.33827722	     -2.39571022	     -6.81940543	    -10.20875537	     -2.97215643	      7.49231616	      2.89186143	     -7.17128609	     13.51624094	     52.74581501	     89.30144168	     -7.44874068	    -10.00027077	      1.03110073	     90.34501610	     90.34758666
      0.06666670	     -0.66425831	      0.30601709	      8.63347934	     -1.03471877	      1.35542764	     -0.12934636	      8.28935351	     -3.09314050	      1.29414903	     22.58005799	      0.39409636	      4.99719665	    -23.91177082	     -6.91129317	     -0.61724439	      2.70514679	     10.18545632	      0.40749798	      0.00711218	      5.39308899	     -2.96287825	     -6.91129317	     -9.31399530	     -3.00834379	      7.42332211	      1.91816880	     -7.34186948	     13.23788101	     52.03619619	     88.83749761	     -7.08367492	    -10.39267911	      1.38802318	     86.52109461	     89.52429378
      0.08333330	     -0.56582231	      0.15201963	      8.26881936	     -1.02224223	      1.35870755	     -0.11971582	      7.58690491	     -2.72642725	      0.87536257	     22.04083712	      0.38468518	      5.10467324	    -23.31657083	     -7.11357342	     -1.09977265	      2.25464538	      9.85788136	      0.30388695	      0.00530383	      5.67533051	     -2.13972926	     -7.11357342	     -8.59807153	     -2.76726102	      7.12254509	     -0.44866915	     -7.12064459	     11.16328343	     51.17965830	     91.32372244	     -6.76019959	    -11.05459927	      1.12169601	     81.59724246	     92.98981164
      0.10000000	     -0.49594733	     -0.07450956	      7.75459559	     -1.02315276	      1.35170641	     -0.11896509	      7.24050746	     -2.44310907	      0.21154018	     21.83714302	      0.38113004	      4.79579216	    -23.64438623	     -7.23013404	     -1.45341258	      1.85648728	      9.55162666	      0.26341146	      0.00459740	      6.03388963	     -1.79527605	     -7.23013404	     -8.08504654	     -2.29642717	      6.96394250	     -1.89022356	     -7.19720772	      9.19898353	     50.48397859	     91.15374159	     -7.49736122	    -11.55768382	      0.12086848	     77.36256259	     94.21320103
      0.11666670	     -0.36174400	     -0.28390584	      7.33403933	     -1.02418527	      1.34918332	     -0.11885482	      6.74092868	     -2.17136919	     -0.73935815	     21.41379003	      0.37374114	      4.70166549	    -23.92054525	     -7.23362512	     -1.71703585	      1.46988580	      9.46935250	      0.21247027	      0.00370831	      6.32471432	     -1.84387562	     -7.23362512	     -7.79265955	     -1.87083877	      6.26684225	     -2.48357263	     -7.59285767	      8.23129916	     49.94532536	     91.12036236	     -8.59064788	    -11.84553118	     -1.28911655	     73.87806419	     94.35188084
      0.13333330	     -0.58401941	     -0.48470101	      6.82069819	     -1.03234963	      1.34726464	     -0.11310313	      7.18233163	     -1.86248864	     -1.34109382	     21.37107702	      0.37299566	      4.74810549	    -24.45628319	     -7.30793433	     -1.36805855	      1.09696476	      9.33625540	      0.19079032	      0.00332992	      6.38321349	     -2.51708732	     -7.30793433	     -7.41937950	     -1.46618054	      6.18672283	     -2.95813546	     -7.85173367	      6.44849257	     50.14794785	     89.67345759	     -9.06276585	    -12.47513464	     -0.94795168	     69.33940878	     94.29869505
